<svg 
  id="starburst-blue" 
  data-name="starburst-blue" 
  xmlns="http://www.w3.org/2000/svg" 
  viewBox="0 0 121.3 121.3">
	<g>
		<polygon fill="#F7FF25" points="58.4,20 67.3,0 71.7,21.4 86.6,5.4 83.8,27.1 103.1,16.7 93.5,36.3 115.1,32.8 99.5,48.2 121.1,51.9 101.4,61.5 
	120.7,71.9 99,74.6 113.7,90.7 92.3,86.2 101.1,106.3 82.3,95 84.1,116.8 69.9,100.1 64.5,121.3 56.6,100.9 44.6,119.2 43.7,97.3 
	26.4,110.8 32.7,89.8 12,96.8 24.7,79.1 2.8,79 20.7,66.3 0,59.2 21,53 3.7,39.5 25.6,40.4 13.7,22.1 34.1,30.1 28.7,8.8 45.4,23 
	47.3,1.2 "/>
	</g>
</svg>
